<svg xmlns="http://www.w3.org/2000/svg" version="1.1" xmlns:xlink="http://www.w3.org/1999/xlink" width="512" height="512" x="0" y="0" viewBox="0 0 512 512" style="enable-background:new 0 0 512 512" xml:space="preserve" class=""><g><path d="M375.467 153.6c0-14.507-11.093-25.6-25.6-25.6H162.133c-14.507 0-25.6 11.093-25.6 25.6V256c0 14.507 11.093 25.6 25.6 25.6h187.733c14.507 0 25.6-11.093 25.6-25.6V153.6zM358.4 256c0 5.12-3.413 8.533-8.533 8.533h-56.32l28.16-28.16c3.413-3.413 3.413-8.533 0-11.947-3.413-3.413-8.533-3.413-11.947 0l-40.107 40.107h-52.907l28.16-28.16c3.413-3.413 3.413-8.533 0-11.947s-8.533-3.413-11.947 0l-40.107 40.107h-30.72c-5.12 0-8.533-3.413-8.533-8.533V153.6c0-5.12 3.413-8.533 8.533-8.533h187.733c5.12 0 8.533 3.413 8.533 8.533V256z" fill="#000000" opacity="1" data-original="#000000"></path><path d="M496.64 145.92h-19.627a15.297 15.297 0 0 0-15.36 15.36v17.92h-9.387V25.6c0-14.507-11.093-25.6-25.6-25.6H85.333c-14.507 0-25.6 11.093-25.6 25.6v153.6h-9.387v-17.92c0-8.533-6.827-15.36-15.36-15.36H15.36A15.297 15.297 0 0 0 0 161.28v53.76c0 8.533 6.827 15.36 15.36 15.36h20.48c8.533 0 15.36-6.827 14.507-15.36v-18.773h9.387v93.867H51.2c-5.12 0-8.533 3.413-8.533 8.533v102.4c0 .145.013.284.018.427-.005.143-.018.281-.018.427v33.28c0 14.507 11.093 25.6 25.6 25.6H76.8v17.067C76.8 496.64 92.16 512 110.933 512h34.133c18.773 0 34.133-15.36 34.133-34.133V460.8h153.6v17.067c0 18.773 15.36 34.133 34.133 34.133h34.133c18.773 0 34.133-15.36 34.133-34.133V460.8h8.533c14.507 0 25.6-11.093 25.6-25.6v-33.28c0-.145-.013-.284-.018-.427.005-.143.018-.281.018-.427v-102.4c0-5.12-3.413-8.533-8.533-8.533h-8.533v-93.867h9.387v18.773c0 8.533 6.827 15.36 15.36 15.36h19.627c8.533 0 15.36-6.827 15.36-15.36v-53.76a15.295 15.295 0 0 0-15.359-15.359zM34.133 213.333H17.067v-51.2h17.067v51.2zm128 264.534c0 9.387-7.68 17.067-17.067 17.067h-34.133c-9.387 0-17.067-7.68-17.067-17.067V460.8h68.267v17.067zm256 0c0 9.387-7.68 17.067-17.067 17.067h-34.133c-9.387 0-17.067-7.68-17.067-17.067V460.8h68.267v17.067zm34.134-42.667c0 5.12-3.413 8.533-8.533 8.533H68.267c-5.12 0-8.533-3.413-8.533-8.533v-24.747h392.533V435.2zm0-42.667H59.733V307.2h51.2V117.76c0-8.533 6.827-15.36 15.36-15.36h259.413c8.533 0 15.36 6.827 15.36 15.36V307.2h51.2v85.333zm-34.134-102.4V117.76c0-17.92-14.507-32.427-32.427-32.427h-44.373v-25.6c0-5.12-3.413-8.533-8.533-8.533-5.12 0-8.533 3.413-8.533 8.533v25.6h-25.6v-25.6c0-5.12-3.413-8.533-8.533-8.533s-8.533 3.413-8.533 8.533v25.6H256v-25.6c0-5.12-3.413-8.533-8.533-8.533s-8.533 3.413-8.533 8.533v25.6h-25.6v-25.6c0-5.12-3.413-8.533-8.533-8.533-5.12 0-8.533 3.413-8.533 8.533v25.6h-25.6v-25.6c0-5.12-3.413-8.533-8.533-8.533s-8.533 3.413-8.533 8.533v25.6h-27.307c-17.92 0-32.427 14.507-32.427 32.427v172.373H76.8V25.6c0-5.12 3.413-8.533 8.533-8.533h341.333c5.12 0 8.533 3.413 8.533 8.533v264.533h-17.066zm76.8-76.8h-17.067v-51.2h17.067v51.2z" fill="#000000" opacity="1" data-original="#000000"></path><path d="M290.133 332.8c5.12 0 8.533-3.413 8.533-8.533s-3.413-8.533-8.533-8.533h-68.267c-5.12 0-8.533 3.413-8.533 8.533s3.413 8.533 8.533 8.533h68.267zM315.733 349.867H196.267c-5.12 0-8.533 3.413-8.533 8.533s3.413 8.533 8.533 8.533h119.467c5.12 0 8.533-3.413 8.533-8.533s-3.414-8.533-8.534-8.533zM110.933 324.267c-14.507 0-25.6 11.093-25.6 25.6 0 14.507 11.093 25.6 25.6 25.6s25.6-11.093 25.6-25.6c0-14.507-11.093-25.6-25.6-25.6zm0 34.133c-5.12 0-8.533-3.413-8.533-8.533s3.413-8.533 8.533-8.533 8.533 3.413 8.533 8.533-3.413 8.533-8.533 8.533zM375.467 349.867c0 14.507 11.093 25.6 25.6 25.6 14.507 0 25.6-11.093 25.6-25.6 0-14.507-11.093-25.6-25.6-25.6-14.507 0-25.6 11.093-25.6 25.6zm34.133 0c0 5.12-3.413 8.533-8.533 8.533-5.12 0-8.533-3.413-8.533-8.533s3.413-8.533 8.533-8.533c5.12-.001 8.533 3.413 8.533 8.533z" fill="#000000" opacity="1" data-original="#000000"></path></g></svg>