<svg xmlns="http://www.w3.org/2000/svg" version="1.1" xmlns:xlink="http://www.w3.org/1999/xlink" width="512" height="512" x="0" y="0" viewBox="0 0 64 64" style="enable-background:new 0 0 512 512" xml:space="preserve" class=""><g><path fill="#f2e6c7" d="M23 11h38v50H23z" opacity="1" data-original="#f2e6c7" class=""></path><path fill="#efd59a" d="M61 55v6H23V11h9v36a8 8 0 0 0 8 8z" opacity="1" data-original="#efd59a" class=""></path><path fill="#92d7ef" d="M47 7h5l2 8H32l2-8h5a4 4 0 0 1 8 0z" opacity="1" data-original="#92d7ef"></path><path fill="#54c4e2" d="M54 15H32l2-8h3.12a4 4 0 0 0 4 4H53z" opacity="1" data-original="#54c4e2"></path><circle cx="48" cy="30" r="6" fill="#f9d53d" opacity="1" data-original="#f9d53d" class=""></circle><circle cx="48" cy="48" r="6" fill="#f9d53d" opacity="1" data-original="#f9d53d" class=""></circle><path fill="#f7b43e" d="M53.47 32.47a6 6 0 1 1-7.94-7.94 6 6 0 0 0 7.94 7.94zM53.47 50.47a6 6 0 1 1-7.94-7.94 6 6 0 0 0 7.94 7.94z" opacity="1" data-original="#f7b43e" class=""></path><path fill="#f9d53d" d="M3 39h28v22H3z" opacity="1" data-original="#f9d53d" class=""></path><path fill="#f7b43e" d="M31 55v6H3V39h6v10a6 6 0 0 0 6 6z" opacity="1" data-original="#f7b43e" class=""></path><path fill="#fbb03b" d="M17 39h-5v8l5-2 5 2v-8z" opacity="1" data-original="#fbb03b"></path><path fill="#f7931e" d="M22 42.8V47l-5-2-5 2v-8h3v5l5-2z" opacity="1" data-original="#f7931e"></path><path fill="#f2e6c7" d="M7 52h6v4H7z" opacity="1" data-original="#f2e6c7" class=""></path><path fill="#efd59a" d="M13 54.65V56H7v-4h2.81A6 6 0 0 0 13 54.65z" opacity="1" data-original="#efd59a" class=""></path><path d="M61 33a1 1 0 0 0-1 1v26H35a1 1 0 0 0 0 2h26a1 1 0 0 0 1-1V34a1 1 0 0 0-1-1zM61 10h-7.22L53 6.76A1 1 0 0 0 52 6h-4.1a5 5 0 0 0-9.8 0H34a1 1 0 0 0-1 .76L32.22 10H23a1 1 0 0 0-1 1v24a1 1 0 0 0 2 0V12h7.72L31 14.76a1 1 0 0 0 .18.86A1 1 0 0 0 32 16h22a1 1 0 0 0 .79-.38 1 1 0 0 0 .18-.86L54.28 12H60v18a1 1 0 0 0 2 0V11a1 1 0 0 0-1-1zm-27.72 4 1.5-6H39a1 1 0 0 0 1-1 3 3 0 0 1 6 0 1 1 0 0 0 1 1h4.22l1.5 6z" fill="#000000" opacity="1" data-original="#000000" class=""></path><path d="M49 23.07a5.94 5.94 0 0 0-1-.07 7 7 0 1 0 7 7.34 1 1 0 0 0-1-1.05 1 1 0 0 0-1 .95A5 5 0 1 1 48 25a4.77 4.77 0 0 1 .66.05 1 1 0 0 0 .3-2z" fill="#000000" opacity="1" data-original="#000000" class=""></path><path d="M56.66 21.25a1 1 0 0 0-1.41.09L48 29.54l-1.25-1.25a1 1 0 0 0-1.42 1.42l2 2A1 1 0 0 0 48 32a1 1 0 0 0 .72-.34l8-9a1 1 0 0 0-.06-1.41zM48 55a7 7 0 0 0 7-6.66 1 1 0 0 0-1-1.05 1 1 0 0 0-1 1A5 5 0 1 1 48 43a4.77 4.77 0 0 1 .66 0 1 1 0 1 0 .3-2 5.94 5.94 0 0 0-.96 0 7 7 0 0 0 0 14z" fill="#000000" opacity="1" data-original="#000000" class=""></path><path d="M55.25 39.34 48 47.54l-1.25-1.25a1 1 0 0 0-1.42 1.42l2 2A1 1 0 0 0 48 50a1 1 0 0 0 .72-.34l8-9a1 1 0 0 0-1.5-1.32zM28 29h8a1 1 0 0 0 0-2h-8a1 1 0 0 0 0 2zM28 33h8a1 1 0 0 0 0-2h-8a1 1 0 0 0 0 2zM36 45h-1a1 1 0 0 0 0 2h1a1 1 0 0 0 0-2zM36 49h-1a1 1 0 0 0 0 2h1a1 1 0 0 0 0-2zM31 38H3a1 1 0 0 0-1 1v7a1 1 0 0 0 2 0v-6h7v7a1 1 0 0 0 1.37.93L17 46.08l4.63 1.85A.94.94 0 0 0 22 48a1 1 0 0 0 1-1v-7h7v20H4V50a1 1 0 0 0-2 0v11a1 1 0 0 0 1 1h28a1 1 0 0 0 1-1V39a1 1 0 0 0-1-1zm-10 7.52-3.63-1.45a1 1 0 0 0-.74 0L13 45.52V40h8z" fill="#000000" opacity="1" data-original="#000000" class=""></path><path d="M13 57a1 1 0 0 0 1-1v-4a1 1 0 0 0-1-1H7a1 1 0 0 0-1 1v4a1 1 0 0 0 1 1zm-5-4h4v2H8zM20 53h6a1 1 0 0 0 0-2h-6a1 1 0 0 0 0 2zM20 57h6a1 1 0 0 0 0-2h-6a1 1 0 0 0 0 2z" fill="#000000" opacity="1" data-original="#000000" class=""></path></g></svg>